<?xml version="1.0" standalone="no"?><!DOCTYPE svg PUBLIC "-//W3C//DTD SVG 1.1//EN" "http://www.w3.org/Graphics/SVG/1.1/DTD/svg11.dtd"><svg t="1603549543794" class="icon" viewBox="0 0 1024 1024" version="1.1" xmlns="http://www.w3.org/2000/svg" p-id="1201" width="12" height="12" xmlns:xlink="http://www.w3.org/1999/xlink"><defs><style type="text/css"></style></defs><path d="M1013.318 283.028c-5.165-7.135-13.437-11.373-22.256-11.373h-764.063l-52.463-219.533c-2.956-12.366-14.006-21.082-26.714-21.082h-115.701c-15.168 0-27.465 12.285-27.465 27.465 0 15.182 12.295 27.465 27.465 27.465h94.028l168.638 705.673c-41.965 12.96-72.751 51.654-72.751 97.817 0 56.727 46.141 102.86 102.845 102.86 56.714 0 102.854-46.133 102.854-102.86 0-17.387-4.749-33.531-12.397-47.903h244.8c-7.65 14.373-12.397 30.516-12.397 47.903 0 56.727 46.141 102.86 102.854 102.86 56.707 0 102.845-46.133 102.845-102.86 0-56.701-46.141-102.833-102.845-102.833h-400.531l-12.252-51.257h518.265c11.847 0 22.362-7.591 26.077-18.857l134.986-408.785c2.769-8.369 1.347-17.569-3.822-24.703zM750.595 841.557c26.419 0 47.917 21.484 47.917 47.903s-21.498 47.93-47.917 47.93c-26.426 0-47.922-21.51-47.922-47.93-0.001-26.419 21.497-47.903 47.922-47.903zM372.809 889.461c0 26.419-21.498 47.93-47.922 47.93-26.419 0-47.917-21.51-47.917-47.93 0-26.419 21.498-47.903 47.917-47.903 26.426 0 47.922 21.484 47.922 47.903z" p-id="1202" fill="#FF4100"></path></svg>